<svg xmlns="http://www.w3.org/2000/svg" width="17" height="17" viewBox="0 0 17 17">
    <path fill="#434343" fill-rule="nonzero" d="M15.506 1.992c.824 0 1.494.67 1.494 1.494v12.02C17 16.33 16.33 17 15.506 17H1.494C.67 17 0 16.33 0 15.506V3.486c0-.824.67-1.494 1.494-1.494h.498v-.498C1.992.67 2.662 0 3.486 0S4.98.67 4.98 1.494v.498h2.06v-.498C7.04.67 7.71 0 8.532 0c.824 0 1.494.67 1.494 1.494v.498h1.993v-.498C12.02.67 12.69 0 13.514 0s1.494.67 1.494 1.494v.498h.498zm-2.49-.498v1.992a.499.499 0 0 0 .996 0V1.494a.499.499 0 0 0-.996 0zm-4.98 0v1.992a.499.499 0 0 0 .995 0V1.494a.499.499 0 0 0-.996 0zm-5.048 0v1.992a.499.499 0 0 0 .996 0V1.494a.499.499 0 0 0-.996 0zm13.016 14.012V7.039H.996v8.467c0 .274.224.498.498.498h14.012a.499.499 0 0 0 .498-.498zm0-9.463V3.486a.499.499 0 0 0-.498-.498h-.498v.498c0 .824-.67 1.494-1.494 1.494s-1.494-.67-1.494-1.494v-.498h-1.993v.498c0 .824-.67 1.494-1.494 1.494S7.04 4.31 7.04 3.486v-.498H4.98v.498c0 .824-.67 1.494-1.494 1.494s-1.494-.67-1.494-1.494v-.498h-.498a.499.499 0 0 0-.498.498v2.557h15.008zM14.503 8c.274 0 .497.224.497.5v6c0 .276-.223.5-.497.5H2.497A.499.499 0 0 1 2 14.5v-6c0-.276.223-.5.497-.5h12.006zm-9.518 6v-2h-1.99v2h1.99zm0-3V9h-1.99v2h1.99zm3.05 3v-2H5.98v2h2.056zm0-3V9H5.98v2h2.056zm2.985 3v-2H9.03v2h1.99zm0-3V9H9.03v2h1.99zm2.985 3v-2h-1.99v2h1.99zm0-3V9h-1.99v2h1.99z"/>
</svg>
